<svg width="500" height="500" viewBox="0 0 500 500" fill="none" xmlns="http://www.w3.org/2000/svg">
<path d="M451.665 116.959C449.987 114.165 448.242 111.423 446.419 108.743C422.142 73.072 381.726 48.65 342.448 37.59C325.241 32.737 307.574 30.199 289.937 29.55C174.259 25.347 131.763 120.725 94.492 145.317C57.222 169.909 0.0279688 211.914 7.20497 300.152C12.651 367.242 50.816 431.391 120.521 460.584C128.198 463.809 136.266 466.609 144.712 468.931C160.424 473.253 177.453 475.967 195.801 476.783C248.501 479.131 291.292 466.427 333.148 434.438C342.877 427.002 352.555 418.615 365.181 417.696C374.359 417.028 383.06 420.325 373.467 429.195C362.192 439.62 375.201 460.124 403.823 445.879C451.626 422.087 471.29 370.756 480.554 318.56C491.926 254.49 486.414 174.814 451.665 116.959Z" fill="#10B981"/>
<path opacity="0.7" d="M451.665 116.959C449.987 114.165 448.242 111.423 446.419 108.743C422.142 73.072 381.726 48.65 342.448 37.59C325.241 32.737 307.574 30.199 289.937 29.55C174.259 25.347 131.763 120.725 94.492 145.317C57.222 169.909 0.0279688 211.914 7.20497 300.152C12.651 367.242 50.816 431.391 120.521 460.584C128.198 463.809 136.266 466.609 144.712 468.931C160.424 473.253 177.453 475.967 195.801 476.783C248.501 479.131 291.292 466.427 333.148 434.438C342.877 427.002 352.555 418.615 365.181 417.696C374.359 417.028 383.06 420.325 373.467 429.195C362.192 439.62 375.201 460.124 403.823 445.879C451.626 422.087 471.29 370.756 480.554 318.56C491.926 254.49 486.414 174.814 451.665 116.959Z" fill="white"/>
<path d="M206.192 460.54C202.491 460.54 198.662 460.454 194.81 460.281C178.145 459.541 162.16 457.092 147.294 453.003C139.717 450.92 132.303 448.362 125.254 445.401C66.601 420.837 28.38 366.502 22.985 300.044C20.2 265.803 27.776 236.995 46.144 211.969C61.658 190.833 82.336 175.686 102.372 162.467C115.439 153.845 127.103 140.792 140.609 125.678C172.36 90.147 211.877 45.927 284.128 45.927C286.342 45.927 288.605 45.969 290.856 46.05C307.875 46.676 324.238 49.173 339.478 53.472C378.628 64.495 413.74 88.333 433.413 117.24C434.98 119.545 436.554 122.011 438.086 124.561C472.758 182.289 474.665 261.711 464.89 316.789C455.204 371.362 437.297 406.14 408.931 424.989C408.523 422.505 407.87 420.456 407.295 418.989C402.288 406.197 389.324 398.56 372.616 398.56C371.217 398.56 369.787 398.612 368.367 398.716C348.577 400.156 334.21 411.271 323.72 419.386C322.822 420.08 321.927 420.774 321.03 421.459C285.667 448.488 250.249 460.54 206.192 460.54Z" fill="#0F172A"/>
<path d="M362.532 105.567C365.124 105.567 367.226 103.466 367.226 100.873C367.226 98.2808 365.124 96.1792 362.532 96.1792C359.939 96.1792 357.838 98.2808 357.838 100.873C357.838 103.466 359.939 105.567 362.532 105.567Z" fill="#B2B2B2"/>
<path d="M441.073 184.933C443.665 184.933 445.767 182.832 445.767 180.239C445.767 177.647 443.665 175.545 441.073 175.545C438.48 175.545 436.379 177.647 436.379 180.239C436.379 182.832 438.48 184.933 441.073 184.933Z" fill="#B2B2B2"/>
<path d="M116.786 407.293C119.378 407.293 121.48 405.191 121.48 402.599C121.48 400.007 119.378 397.905 116.786 397.905C114.194 397.905 112.092 400.007 112.092 402.599C112.092 405.191 114.194 407.293 116.786 407.293Z" fill="#B2B2B2"/>
<path d="M402.476 403.219C405.068 403.219 407.17 401.117 407.17 398.525C407.17 395.933 405.068 393.831 402.476 393.831C399.884 393.831 397.782 395.933 397.782 398.525C397.782 401.117 399.884 403.219 402.476 403.219Z" fill="#B2B2B2"/>
<path d="M248.488 60.0181C248.488 61.4981 247.288 62.6971 245.809 62.6971C244.329 62.6971 243.13 61.4971 243.13 60.0181C243.13 58.5381 244.33 57.3391 245.809 57.3391C247.288 57.3391 248.488 58.5381 248.488 60.0181Z" fill="#B2B2B2"/>
<path d="M62.0019 226.521C64.5943 226.521 66.6959 224.419 66.6959 221.827C66.6959 219.235 64.5943 217.133 62.0019 217.133C59.4094 217.133 57.3079 219.235 57.3079 221.827C57.3079 224.419 59.4094 226.521 62.0019 226.521Z" fill="#B2B2B2"/>
<path d="M400.24 106.696C401.526 106.696 402.568 105.654 402.568 104.368C402.568 103.082 401.526 102.04 400.24 102.04C398.954 102.04 397.912 103.082 397.912 104.368C397.912 105.654 398.954 106.696 400.24 106.696Z" fill="#B2B2B2"/>
<path d="M86.944 373.59C88.2297 373.59 89.272 372.548 89.272 371.262C89.272 369.976 88.2297 368.934 86.944 368.934C85.6583 368.934 84.616 369.976 84.616 371.262C84.616 372.548 85.6583 373.59 86.944 373.59Z" fill="#92E3A9"/>
<path d="M430.606 354.404C431.892 354.404 432.934 353.362 432.934 352.076C432.934 350.79 431.892 349.748 430.606 349.748C429.32 349.748 428.278 350.79 428.278 352.076C428.278 353.362 429.32 354.404 430.606 354.404Z" fill="#92E3A9"/>
<path d="M216.247 416.325C216.247 417.611 215.205 418.653 213.919 418.653C212.633 418.653 211.591 417.611 211.591 416.325C211.591 415.039 212.633 413.997 213.919 413.997C215.205 413.996 216.247 415.039 216.247 416.325Z" fill="#92E3A9"/>
<path d="M96.947 334.169C96.947 335.455 95.905 336.497 94.619 336.497C93.333 336.497 92.291 335.455 92.291 334.169C92.291 332.883 93.333 331.841 94.619 331.841C95.905 331.841 96.947 332.883 96.947 334.169Z" fill="#B2B2B2"/>
<path d="M193.363 445.776C193.363 447.062 192.321 448.104 191.035 448.104C189.749 448.104 188.707 447.062 188.707 445.776C188.707 444.49 189.749 443.448 191.035 443.448C192.321 443.448 193.363 444.49 193.363 445.776Z" fill="#B2B2B2"/>
<path d="M327.411 70.6791C327.411 71.9651 326.369 73.0071 325.083 73.0071C323.797 73.0071 322.755 71.9651 322.755 70.6791C322.755 69.3931 323.797 68.3511 325.083 68.3511C326.368 68.3511 327.411 69.3931 327.411 70.6791Z" fill="#92E3A9"/>
<path d="M331.427 325.215C331.427 326.501 330.385 327.543 329.099 327.543C327.813 327.543 326.771 326.501 326.771 325.215C326.771 323.929 327.813 322.887 329.099 322.887C330.385 322.887 331.427 323.93 331.427 325.215Z" fill="#B2B2B2"/>
<path d="M438.316 234.726C438.316 236.012 437.274 237.054 435.988 237.054C434.702 237.054 433.66 236.012 433.66 234.726C433.66 233.44 434.702 232.398 435.988 232.398C437.274 232.398 438.316 233.44 438.316 234.726Z" fill="#B2B2B2"/>
<path d="M57.33 326.265C58.6157 326.265 59.658 325.223 59.658 323.937C59.658 322.651 58.6157 321.609 57.33 321.609C56.0442 321.609 55.002 322.651 55.002 323.937C55.002 325.223 56.0442 326.265 57.33 326.265Z" fill="#92E3A9"/>
<path d="M264.736 431.788C266.022 431.788 267.064 430.746 267.064 429.46C267.064 428.174 266.022 427.132 264.736 427.132C263.45 427.132 262.408 428.174 262.408 429.46C262.408 430.746 263.45 431.788 264.736 431.788Z" fill="#B2B2B2"/>
<path d="M180.317 340.974C181.603 340.974 182.645 339.932 182.645 338.646C182.645 337.36 181.603 336.318 180.317 336.318C179.031 336.318 177.989 337.36 177.989 338.646C177.989 339.932 179.031 340.974 180.317 340.974Z" fill="#92E3A9"/>
<path d="M335.495 150.622C335.495 151.908 334.453 152.95 333.167 152.95C331.881 152.95 330.839 151.908 330.839 150.622C330.839 149.336 331.881 148.294 333.167 148.294C334.453 148.294 335.495 149.336 335.495 150.622Z" fill="#92E3A9"/>
<path d="M121.819 338.875V289.813H62.156V260.722L114.176 139.179H153.869V262.694H174.332V289.813H153.869V338.875H121.819ZM90.755 262.695H121.819V175.914L90.755 262.695ZM244.347 341.834C232.676 341.834 223.021 339.369 215.379 334.438C207.737 329.508 201.981 322.689 198.121 313.975C194.258 305.265 192.328 295.238 192.328 283.897V195.39C192.328 183.721 194.177 173.489 197.875 164.696C201.573 155.906 207.243 149.04 214.886 144.11C222.528 139.179 232.348 136.714 244.347 136.714C256.343 136.714 266.167 139.179 273.809 144.11C281.451 149.04 287.123 155.906 290.82 164.696C294.518 173.49 296.367 183.722 296.367 195.39V283.897C296.367 295.238 294.434 305.265 290.574 313.975C286.711 322.688 280.958 329.507 273.316 334.438C265.674 339.368 256.016 341.834 244.347 341.834ZM244.347 312.496C249.44 312.496 253.223 310.936 255.688 307.811C258.153 304.691 259.794 300.909 260.618 296.471C261.438 292.033 261.851 287.679 261.851 283.404V195.883C261.851 191.282 261.481 186.722 260.742 182.2C260.002 177.682 258.4 173.859 255.935 170.735C253.47 167.615 249.606 166.051 244.347 166.051C239.085 166.051 235.225 167.615 232.76 170.735C230.295 173.859 228.692 177.681 227.953 182.2C227.213 186.722 226.844 191.283 226.844 195.883V283.404C226.844 287.679 227.294 292.033 228.2 296.471C229.1 300.909 230.789 304.691 233.254 307.811C235.719 310.936 239.417 312.496 244.347 312.496ZM377.726 338.875V289.813H318.061V260.722L370.083 139.179H409.773V262.694H430.234V289.813H409.773V338.875H377.726ZM346.66 262.695H377.726V175.914L346.66 262.695Z" fill="#10B981" stroke="#263238" stroke-miterlimit="10"/>
<path d="M137.66 393.698V353.691H152.132V356.605H141.463V371.62H150.156V374.386H141.463V390.882H152.23V393.697H137.66V393.698Z" fill="#B2B2B2"/>
<path d="M157.367 393.698V353.691H166.406C168.908 353.691 170.876 354.095 172.308 354.901C173.741 355.708 174.769 356.876 175.395 358.408C176.02 359.939 176.333 361.758 176.333 363.865C176.333 365.347 176.168 366.747 175.839 368.063C175.509 369.381 174.95 370.5 174.16 371.422C173.37 372.344 172.25 372.954 170.801 373.249L176.926 393.697H173.271L167.393 374.04H161.121V393.697H157.367V393.698ZM161.12 371.274H166.207C167.886 371.274 169.187 370.995 170.109 370.434C171.03 369.874 171.689 369.051 172.084 367.964C172.479 366.877 172.677 365.512 172.677 363.865C172.677 361.395 172.249 359.552 171.393 358.333C170.536 357.115 168.841 356.506 166.306 356.506H161.12V371.274Z" fill="#B2B2B2"/>
<path d="M182.654 393.698V353.691H191.693C194.195 353.691 196.163 354.095 197.595 354.901C199.027 355.708 200.056 356.876 200.682 358.408C201.307 359.939 201.62 361.758 201.62 363.865C201.62 365.347 201.455 366.747 201.126 368.063C200.796 369.381 200.237 370.5 199.447 371.422C198.657 372.344 197.537 372.954 196.088 373.249L202.213 393.697H198.558L192.68 374.04H186.408V393.697H182.654V393.698ZM186.408 371.274H191.495C193.174 371.274 194.475 370.995 195.397 370.434C196.318 369.874 196.977 369.051 197.372 367.964C197.767 366.877 197.965 365.512 197.965 363.865C197.965 361.395 197.537 359.552 196.681 358.333C195.824 357.115 194.129 356.506 191.594 356.506H186.408V371.274Z" fill="#B2B2B2"/>
<path d="M217.376 394.192C214.741 394.192 212.675 393.673 211.177 392.636C209.678 391.599 208.625 390.15 208.016 388.29C207.407 386.43 207.102 384.298 207.102 381.893V365.298C207.102 362.862 207.423 360.747 208.065 358.952C208.707 357.157 209.777 355.766 211.276 354.778C212.774 353.79 214.807 353.296 217.376 353.296C219.977 353.296 222.026 353.79 223.525 354.778C225.023 355.766 226.085 357.157 226.711 358.952C227.336 360.747 227.65 362.862 227.65 365.298V381.943C227.65 384.347 227.345 386.47 226.736 388.314C226.126 390.159 225.081 391.599 223.6 392.636C222.117 393.673 220.043 394.192 217.376 394.192ZM217.376 391.179C219.154 391.179 220.504 390.825 221.426 390.117C222.347 389.409 222.982 388.421 223.328 387.153C223.674 385.886 223.846 384.412 223.846 382.732V364.606C223.846 362.926 223.673 361.462 223.328 360.21C222.982 358.959 222.348 357.996 221.426 357.32C220.504 356.646 219.154 356.308 217.376 356.308C215.631 356.308 214.289 356.646 213.351 357.32C212.413 357.996 211.771 358.959 211.425 360.21C211.079 361.462 210.906 362.926 210.906 364.606V382.732C210.906 384.412 211.079 385.886 211.425 387.153C211.771 388.421 212.413 389.409 213.351 390.117C214.289 390.825 215.63 391.179 217.376 391.179Z" fill="#B2B2B2"/>
<path d="M233.872 393.698V353.691H242.911C245.412 353.691 247.38 354.095 248.813 354.901C250.244 355.708 251.274 356.876 251.9 358.408C252.524 359.939 252.838 361.758 252.838 363.865C252.838 365.347 252.673 366.747 252.345 368.063C252.015 369.381 251.456 370.5 250.665 371.422C249.874 372.344 248.755 372.954 247.306 373.249L253.432 393.697H249.777L243.9 374.04H237.627V393.697H233.872V393.698ZM237.626 371.274H242.713C244.393 371.274 245.693 370.995 246.615 370.434C247.537 369.874 248.195 369.051 248.59 367.964C248.985 366.877 249.183 365.512 249.183 363.865C249.183 361.395 248.755 359.552 247.899 358.333C247.043 357.115 245.347 356.506 242.811 356.506H237.626V371.274Z" fill="#B2B2B2"/>
<path d="M269.236 393.698V353.691H278.817C281.22 353.691 283.106 354.135 284.473 355.024C285.839 355.913 286.819 357.148 287.412 358.729C288.005 360.309 288.301 362.17 288.301 364.309C288.301 366.186 287.996 367.923 287.388 369.52C286.779 371.117 285.775 372.393 284.375 373.347C282.975 374.303 281.14 374.779 278.868 374.779H272.99V393.696H269.236V393.698ZM272.989 371.965H277.781C279.393 371.965 280.702 371.727 281.707 371.249C282.711 370.772 283.444 369.973 283.905 368.853C284.366 367.735 284.596 366.219 284.596 364.309C284.596 362.268 284.398 360.679 284.004 359.543C283.608 358.408 282.925 357.617 281.954 357.172C280.982 356.728 279.608 356.505 277.829 356.505H272.989V371.965Z" fill="#B2B2B2"/>
<path d="M288.892 393.698L297.339 353.691H301.29L309.786 393.698H306.082L304.107 382.981H294.574L292.549 393.698H288.892ZM295.116 380.263H303.611L299.314 358.679L295.116 380.263Z" fill="#B2B2B2"/>
<path d="M323.567 394.241C321.064 394.241 319.097 393.714 317.665 392.66C316.233 391.607 315.22 390.117 314.628 388.191C314.035 386.265 313.739 384.034 313.739 381.499V365.89C313.739 363.321 314.026 361.099 314.603 359.222C315.179 357.346 316.199 355.888 317.665 354.851C319.13 353.813 321.197 353.295 323.864 353.295C326.266 353.295 328.168 353.739 329.569 354.629C330.967 355.518 331.981 356.818 332.606 358.531C333.231 360.243 333.545 362.334 333.545 364.803V366.186H329.989V364.803C329.989 362.894 329.816 361.313 329.47 360.061C329.124 358.81 328.523 357.872 327.667 357.246C326.81 356.621 325.543 356.307 323.864 356.307C322.053 356.307 320.686 356.702 319.765 357.492C318.843 358.282 318.241 359.369 317.962 360.752C317.682 362.135 317.542 363.716 317.542 365.494V381.942C317.542 383.886 317.715 385.547 318.061 386.93C318.407 388.313 319.049 389.367 319.987 390.092C320.925 390.817 322.25 391.179 323.963 391.179C325.609 391.179 326.884 390.808 327.79 390.067C328.695 389.326 329.329 388.265 329.692 386.882C330.054 385.499 330.235 383.819 330.235 381.844V377.151H324.308V374.336H333.692V393.698H331.271L330.827 389.154C330.334 390.702 329.518 391.937 328.383 392.858C327.246 393.779 325.641 394.241 323.567 394.241Z" fill="#B2B2B2"/>
<path d="M340.161 393.698V353.691H354.632V356.605H343.964V371.62H352.657V374.386H343.964V390.882H354.731V393.697H340.161V393.698Z" fill="#B2B2B2"/>
<g opacity="0.3">
<path d="M320.696 285.13C320.741 285.169 320.783 285.209 320.829 285.247C321.003 285.388 321.19 285.519 321.393 285.641C321.442 285.67 321.496 285.696 321.546 285.724C321.718 285.82 321.902 285.909 322.097 285.991C322.163 286.019 322.228 286.048 322.297 286.074C322.548 286.17 322.815 286.257 323.106 286.33C323.151 286.341 323.202 286.349 323.248 286.36C323.507 286.42 323.784 286.471 324.077 286.513C324.17 286.526 324.263 286.539 324.359 286.551C324.712 286.593 325.079 286.626 325.482 286.641C325.484 286.641 325.486 286.641 325.486 286.641C326.849 286.692 328.252 286.427 329.614 285.886C330.295 285.615 330.965 285.276 331.615 284.872C332.048 284.603 332.472 284.305 332.884 283.979C333.09 283.816 333.293 283.647 333.492 283.471C333.891 283.119 334.276 282.74 334.644 282.336C337.958 278.702 339.912 273.032 338.293 266.354C337.89 264.694 337.459 263.125 337.006 261.63C336.243 259.116 335.41 256.826 334.503 254.781C334.262 254.238 334.016 253.711 333.764 253.201C333.162 251.98 332.528 250.867 331.868 249.839C331.425 249.149 330.973 248.49 330.504 247.886C329.336 246.384 328.088 245.152 326.759 244.193C326.427 243.953 326.089 243.731 325.747 243.525C325.663 243.474 325.57 243.432 325.481 243.386L318.061 260.723V279.969C318.773 281.945 319.252 283.725 320.508 284.948C320.5 284.947 320.493 284.946 320.485 284.945C320.551 285.01 320.625 285.069 320.696 285.13Z" fill="black"/>
<path d="M296.367 279.963V245.671C295.385 245.707 294.49 245.75 293.7 245.798C293.736 244.723 293.887 237.478 291.891 229.703C291.796 222.822 288.972 216.572 284.443 212.295C283.969 205.647 280.259 197.895 276.112 192.45C276.216 192.456 276.316 192.478 276.423 192.467C278.085 192.287 279.12 190.213 279.852 186.631C279.952 186.14 280.027 185.679 280.086 185.235C281.397 184.354 283.022 183.048 283.786 181.58C284.194 180.795 284.59 179.497 284.766 177.999C286.091 177.213 287.885 175.926 289.68 173.935C290.961 172.515 291.837 170.537 292.223 168.379C291.787 167.126 291.325 165.895 290.82 164.696C288.604 159.427 285.663 154.865 282.03 150.982C280.987 150.436 279.858 149.968 278.635 149.639C277.523 149.34 276.426 149.202 275.349 149.176C272.267 148.541 265.802 147.449 256.94 147.233C253.953 147.16 251.268 147.178 248.861 147.323C246.812 146.446 244.574 146.055 242.27 146.305C240.862 146.458 239.531 146.844 238.291 147.409C234.482 146.412 230.636 146.151 227.48 146.494C226.721 146.576 225.971 146.674 225.239 146.779C225.213 146.401 225.186 146.023 225.145 145.644C225.066 144.912 224.95 144.193 224.818 143.481C224.906 142.16 224.914 140.82 224.839 139.468C221.192 140.641 217.871 142.185 214.888 144.11C207.245 149.04 201.575 155.906 197.877 164.696C194.179 173.49 192.33 183.722 192.33 195.39V204.172C195.907 208.805 200.232 213.987 203.082 215.981C203.293 216.2 203.501 216.413 203.707 216.618C203.905 220.065 204.508 227.841 206.01 230.397C206.01 230.397 204.837 234.524 206.83 236.607C206.224 241.23 205.413 252.804 210.212 264.198C213.941 273.053 220.308 277.831 226.847 279.352V195.882C226.847 191.281 227.217 186.721 227.956 182.199C228.696 177.681 230.298 173.858 232.763 170.734C235.228 167.614 239.088 166.05 244.35 166.05C249.609 166.05 253.472 167.614 255.938 170.734C258.403 173.858 260.006 177.68 260.745 182.199C261.485 186.721 261.854 191.282 261.854 195.882V283.403C261.854 284.876 261.787 286.362 261.689 287.854C261.743 288.142 261.802 288.412 261.871 288.656L261.869 288.655C261.871 288.661 261.873 288.665 261.875 288.67C261.961 288.972 262.06 289.239 262.169 289.483C262.191 289.533 262.216 289.577 262.239 289.625C262.333 289.816 262.434 289.99 262.543 290.148C262.571 290.189 262.599 290.233 262.629 290.272C262.767 290.454 262.914 290.619 263.075 290.761C263.08 290.765 263.086 290.769 263.091 290.773C263.247 290.908 263.416 291.024 263.593 291.129C263.637 291.155 263.683 291.181 263.729 291.206C263.89 291.293 264.058 291.374 264.235 291.445C264.267 291.458 264.296 291.473 264.329 291.485C264.541 291.566 264.766 291.64 265.002 291.707C265.053 291.722 265.107 291.736 265.159 291.75C265.356 291.804 265.561 291.857 265.774 291.908C265.85 291.926 265.928 291.946 266.005 291.964C266.246 292.02 266.493 292.077 266.753 292.138C270.376 292.98 276.553 288.071 278.136 283.131C278.442 282.175 278.682 281.046 278.872 279.849C279.071 279.82 279.271 279.793 279.469 279.758C282.613 280.396 289.235 281.331 296.367 279.963ZM273.416 189.291C273.406 189.281 273.397 189.272 273.387 189.262C273.408 189.12 273.428 188.979 273.449 188.834C273.43 189.019 273.417 189.182 273.416 189.291ZM273.725 186.795C273.791 186.289 273.855 185.79 273.917 185.303L273.943 185.31C273.869 185.832 273.794 186.333 273.725 186.795Z" fill="black"/>
<path d="M153.868 207.262C152.579 210.486 151.44 213.397 150.86 215.024C149.019 220.188 147.089 226.002 147.133 229.359C147.178 232.717 149.242 236.976 150.858 237.121C152.468 237.265 153.627 236.186 153.868 233.937V207.262Z" fill="black"/>
</g>
<path d="M269.134 217.184C269.134 217.184 270.124 224.67 270.066 232.269C270.009 239.869 271.792 240.028 275.415 240.871C279.038 241.714 285.215 236.804 286.798 231.865C288.38 226.925 288.229 217.406 288.229 217.406L269.134 217.184Z" fill="#DEDEDE" stroke="#263238" stroke-miterlimit="10"/>
<path d="M285.668 226.336C285.505 229.709 284.503 235.115 279.494 237.779C275.249 240.036 271.558 238.047 270.532 237.389C271.274 240.029 272.902 240.287 275.415 240.871C279.038 241.713 285.215 236.804 286.798 231.864C288.38 226.924 288.229 217.405 288.229 217.405L285.999 217.379C285.918 219.879 285.778 224.067 285.668 226.336Z" fill="#DEDEDE" stroke="#263238" stroke-miterlimit="10"/>
<path d="M251.9 224.353C251.9 224.353 257.891 224.232 266.041 221.228C274.191 218.224 283.339 211.402 281.378 204.729C279.417 198.055 268.797 196.207 264.609 196.662C260.42 197.117 255.609 198.346 255.609 198.346C255.609 198.346 256.59 217.133 251.9 224.353Z" fill="#DEDEDE" stroke="#263238" stroke-miterlimit="10"/>
<path d="M247.958 227.077C247.958 227.077 253.312 225.966 256.559 221.728C259.807 217.49 261.006 210.65 259.273 206.07C257.54 201.49 247.958 227.077 247.958 227.077Z" fill="#10B981" stroke="#263238" stroke-miterlimit="10"/>
<path d="M215.825 183.242C215.825 183.242 212.686 198.24 218.873 212.931C225.06 227.622 238.506 231.106 247.958 227.077C257.41 223.048 259.671 209.735 259.771 200.895C259.87 192.055 259.609 188.022 259.609 188.022C259.609 188.022 227.807 191.123 215.825 183.242Z" fill="#DEDEDE" stroke="#263238" stroke-miterlimit="10"/>
<path d="M214.672 179.129C214.672 179.129 213.264 184.05 216.11 185.86C218.956 187.67 233.668 196.314 251.144 193.003C260.901 191.154 258.755 188.291 258.585 186.72C258.414 185.149 214.672 179.129 214.672 179.129Z" fill="#10B981" stroke="#263238" stroke-miterlimit="10"/>
<path d="M212.287 163.672C212.287 163.672 212.723 175.809 214.672 179.129C216.622 182.449 242.44 192.535 255.553 189.698C268.666 186.861 290 175.184 292.6 166.602C295.199 158.02 288.441 144.517 282.082 138.023C275.723 131.529 272.934 130.243 272.934 130.243C272.934 130.243 257.354 151.007 237.97 157.881C218.585 164.754 212.287 163.672 212.287 163.672Z" fill="white" stroke="#263238" stroke-miterlimit="10"/>
<path d="M315.214 194.342C315.214 194.342 328.934 188.967 334.412 192.257C339.891 195.547 344.079 203.215 346.958 215.087C349.837 226.959 341.421 235.643 334.152 235.373C326.883 235.103 328.135 230.376 325.316 225.561C322.497 220.746 319.015 217.946 318.783 217.441C318.552 216.936 322.02 201.726 315.214 194.342Z" fill="white" stroke="#263238" stroke-miterlimit="10"/>
<path d="M334.412 192.257C332.948 191.378 330.894 191.121 328.671 191.212C331.446 193.267 336.932 198.287 340.519 207.84C345.488 221.074 343.242 228.029 340.696 230.601C338.15 233.173 332.778 234.11 330.452 233.833C330.071 233.788 329.625 233.734 329.15 233.678C330.146 234.655 331.64 235.281 334.151 235.374C341.421 235.644 349.836 226.96 346.957 215.088C344.079 203.215 339.891 195.546 334.412 192.257Z" fill="white" stroke="#263238" stroke-miterlimit="10"/>
<path d="M286.206 228.043C286.206 228.043 299.147 231.758 311.16 226.922C323.172 222.085 330.249 214.076 327.597 204.299C324.946 194.521 319.964 194.18 309.029 194.308C298.095 194.436 295.901 195.381 295.901 195.381C295.901 195.381 295.544 222.967 286.206 228.043Z" fill="white" stroke="#263238" stroke-miterlimit="10"/>
<path d="M300.463 181.257C301.707 168.081 292.856 156.469 280.693 155.32C268.53 154.172 257.662 163.923 256.418 177.099C255.174 190.275 264.025 201.887 276.188 203.036C288.35 204.184 299.219 194.433 300.463 181.257Z" fill="#10B981" stroke="#263238" stroke-miterlimit="10"/>
<path d="M305.149 208.938C306.278 196.986 298.249 186.453 287.217 185.411C276.185 184.37 266.326 193.214 265.198 205.166C264.07 217.117 272.098 227.651 283.13 228.692C294.163 229.734 304.021 220.889 305.149 208.938Z" fill="#10B981" stroke="#263238" stroke-miterlimit="10"/>
<path d="M302.36 194.679C302.36 194.679 303.26 175.333 293.806 164.705C284.352 154.077 262.869 162.768 259.302 178.695C255.735 194.622 263.276 218.526 273.129 224.695C282.982 230.865 291.333 224.836 296.937 216.281C302.541 207.727 302.36 194.679 302.36 194.679Z" fill="white" stroke="#263238" stroke-miterlimit="10"/>
<path d="M168.846 140.485C168.846 140.485 161.366 158.591 159.525 163.755C157.684 168.919 155.754 174.733 155.798 178.091C155.843 181.449 157.906 185.708 159.523 185.853C161.14 185.998 162.303 184.911 162.537 182.643C162.771 180.376 162.668 179.426 163.814 178.181C164.96 176.936 168.534 174.466 168.992 174.256C169.45 174.046 169.797 175.77 168.72 177.648C167.643 179.526 165.266 181.226 166.755 183.145C168.245 185.065 171.203 182.822 172.789 181.208C174.375 179.595 175.999 176.856 176.656 174.063C177.313 171.27 176.994 165.38 176.994 165.38L190.209 152.896C190.209 152.896 172.688 150.796 168.846 140.485Z" fill="#DEDEDE" stroke="#263238" stroke-miterlimit="10"/>
<path d="M169.673 176.103C169.673 176.103 169.473 178.687 174.29 178.804" stroke="#263238" stroke-miterlimit="10"/>
<path d="M156.951 173.962C156.951 173.962 158.292 178.94 163.814 178.18" stroke="#263238" stroke-miterlimit="10"/>
<path d="M156.514 180.903C156.514 180.903 159.777 183.433 162.261 180.691" stroke="#263238" stroke-miterlimit="10"/>
<path d="M163.294 156.059C163.294 156.059 162.858 165.98 176.995 165.38" stroke="#263238" stroke-miterlimit="10"/>
<path d="M172.586 135.115C172.586 135.115 169.07 135.177 168.846 140.485C168.622 145.793 172.874 153.978 181.027 155.334C189.181 156.69 194.255 151.815 195.742 147.811C197.229 143.807 178.167 131.947 172.586 135.115Z" fill="#10B981" stroke="#263238" stroke-miterlimit="10"/>
<path d="M181.745 120.67C181.745 120.67 173.106 131.056 171.599 136.343C170.092 141.631 173.865 151.308 183.443 152.51C193.021 153.711 198.718 145.727 198.718 145.727L181.745 120.67Z" fill="#DEDEDE" stroke="#263238" stroke-miterlimit="10"/>
<path d="M186.691 112.286C186.691 112.286 180.517 117.506 180.089 125.978C179.661 134.45 187.463 144.218 197.642 143.28C207.82 142.344 195.073 111.881 186.691 112.286Z" fill="#10B981" stroke="#263238" stroke-miterlimit="10"/>
<path d="M190.945 118.563C190.945 118.563 186.414 124.019 189.011 133.184C191.608 142.349 198.082 147.41 198.082 147.41C198.082 147.41 210.607 165.424 215.874 168.215C221.141 171.005 230.44 171.116 249.304 163.463C268.168 155.809 275.596 144.595 278.493 138.836C281.39 133.077 264.421 106.579 258.559 102.732C252.697 98.885 245.035 97.636 239.497 98.238C233.958 98.84 228.822 100.198 228.822 100.198L190.945 118.563Z" fill="#10B981" stroke="#263238" stroke-miterlimit="10"/>
<path d="M187.594 115.551C187.594 115.551 183.063 121.007 185.66 130.172C188.257 139.337 194.731 144.398 194.731 144.398C194.731 144.398 207.256 162.412 212.523 165.203C217.79 167.993 227.089 168.104 245.953 160.451C264.817 152.798 272.245 141.583 275.142 135.824C278.039 130.065 261.07 103.567 255.208 99.7201C249.346 95.8731 241.685 94.6241 236.145 95.2261C230.606 95.8281 225.47 97.1861 225.47 97.1861L187.594 115.551Z" fill="white" stroke="#263238" stroke-miterlimit="10"/>
<path d="M232.886 105.268C237.197 90.1364 228.426 74.3751 213.294 70.064C198.163 65.7528 182.402 74.5244 178.09 89.6558C173.779 104.787 182.551 120.549 197.682 124.86C212.814 129.171 228.575 120.399 232.886 105.268Z" fill="#10B981" stroke="#263238" stroke-miterlimit="10"/>
<path d="M226.658 109.955C237.661 96.0048 235.272 75.7758 221.321 64.7727C207.371 53.7696 187.142 56.1591 176.138 70.1097C165.135 84.0604 167.525 104.289 181.475 115.293C195.426 126.296 215.655 123.906 226.658 109.955Z" fill="#ABABAB" stroke="#263238" stroke-miterlimit="10"/>
<path d="M223.458 94.586C223.791 93.916 224.22 92.726 224.096 91.196C223.899 88.781 221.189 84.322 220.058 83.115C218.927 81.908 217.195 83.331 217.195 83.331L215.196 79.739C210.376 71.077 199.447 67.963 190.785 72.783C182.123 77.603 179.009 88.532 183.829 97.194L187.974 104.642L185.653 100.884C185.653 100.884 183.53 101.606 183.96 103.203C184.39 104.8 186.75 109.454 188.699 110.893C190.083 111.916 191.463 112.119 192.154 112.153L197.623 121.98C199.981 122.256 202.405 122.283 204.866 122.016C215.693 120.84 224.671 114.415 229.563 105.554L223.458 94.586Z" fill="#263238" stroke="#263238" stroke-miterlimit="10"/>
<path d="M215.037 85.5931C211.395 79.0491 203.137 76.696 196.593 80.338L194.143 81.7021C187.598 85.3441 185.245 93.6021 188.887 100.146L201.161 122.202C202.384 122.212 203.62 122.153 204.865 122.018C214.475 120.974 222.621 115.791 227.753 108.444L215.037 85.5931Z" fill="white" stroke="#263238" stroke-miterlimit="10"/>
<path d="M199.953 98.9501C200.414 99.7781 200.382 100.675 199.881 100.954C199.381 101.232 198.601 100.787 198.14 99.9591C197.679 99.1311 197.711 98.2341 198.212 97.9551C198.713 97.6771 199.492 98.1221 199.953 98.9501Z" fill="#263238"/>
<path d="M210.117 93.2941C210.578 94.1221 210.546 95.0191 210.045 95.2981C209.545 95.5761 208.765 95.1311 208.305 94.3031C207.844 93.4751 207.876 92.5781 208.377 92.2991C208.877 92.0211 209.656 92.4661 210.117 93.2941Z" fill="#263238"/>
<path d="M205.126 94.637L210.351 101.139L205.6 103.324" stroke="#263238" stroke-miterlimit="10"/>
<path d="M212.878 106.504C213.336 107.327 213.04 108.365 212.217 108.822C211.394 109.28 210.356 108.984 209.899 108.161C209.441 107.338 209.737 106.3 210.56 105.843C211.382 105.385 212.42 105.681 212.878 106.504Z" fill="#263238"/>
<path d="M192.877 97.7821C192.877 97.7821 193.634 94.6071 197.842 94.3311" stroke="#263238" stroke-miterlimit="10"/>
<path d="M204.403 90.4499C204.403 90.4499 205.511 87.0799 209.952 88.0499" stroke="#263238" stroke-miterlimit="10"/>
<path d="M207.383 117.25C207.383 117.25 210.929 118.26 213.422 117.791C215.915 117.322 217.92 115.976 218.854 114.768C219.788 113.56 221.051 109.644 221.051 109.644" stroke="#263238" stroke-miterlimit="10"/>
<path d="M177.723 108.62C175.804 90.9569 188.567 75.0829 206.23 73.1639C216.432 72.0559 226.032 75.8529 232.696 82.6559C229.039 67.0609 214.247 56.2799 197.917 58.0539C180.254 59.9729 167.491 75.8469 169.41 93.5099C170.221 100.97 173.527 107.55 178.4 112.525C178.101 111.253 177.868 109.952 177.723 108.62Z" fill="white" stroke="#263238" stroke-miterlimit="10"/>
<path d="M254.483 127.576C262.436 126.712 268.092 118.728 267.116 109.743C266.14 100.758 258.901 94.1741 250.948 95.038C242.995 95.9019 237.34 103.886 238.316 112.871C239.292 121.857 246.53 128.44 254.483 127.576Z" fill="#10B981" stroke="#263238" stroke-miterlimit="10"/>
<path d="M286.039 98.3679C286.039 98.3679 278.247 96.2729 265.605 95.9649C252.963 95.6569 245.532 96.8849 243.133 103.169C240.734 109.454 241.278 119.621 249.067 122.978C253.416 124.852 259.8 123.773 264.448 122.708C269.095 121.643 280.488 116.903 284.07 111.19C287.652 105.477 287.724 100.986 286.039 98.3679Z" fill="white" stroke="#263238" stroke-miterlimit="10"/>
<path d="M299.273 107.997C299.273 107.997 295.093 100.466 287.3 98.3709C279.508 96.2759 272.359 101.395 269.117 106.37C265.875 111.345 267.317 113.01 267.317 113.01C267.317 113.01 278.743 107.286 284.652 106.224C290.559 105.161 299.273 107.997 299.273 107.997Z" fill="#10B981" stroke="#263238" stroke-miterlimit="10"/>
<path d="M267.027 118.084C267.027 118.084 265.194 112.82 272.578 105.994C279.962 99.1679 293.536 101.616 297.954 106.179C302.372 110.742 301.845 118.785 298.344 122.667C294.843 126.55 291.334 127.771 291.334 127.771C291.334 127.771 284.457 116.051 267.027 118.084Z" fill="white" stroke="#263238" stroke-miterlimit="10"/>
<path d="M260.865 128.42C260.865 128.42 263.698 120.968 267.027 118.084C270.356 115.201 280.31 113.979 287.732 116.535C295.154 119.091 293.841 127.639 292.451 130.312C291.06 132.985 286.81 135.127 286.81 135.127L260.865 128.42Z" fill="white" stroke="#263238" stroke-miterlimit="10"/>
<path d="M261.714 127.207C261.714 127.207 260.206 127.511 258.695 129.076C257.184 130.641 256.705 131.394 253.671 133.124C250.637 134.854 247.422 134.923 248.614 138.156C249.806 141.389 254.236 140.907 256.421 140.39C258.606 139.872 259.5 139.075 261.18 137.772C262.86 136.469 264.127 127.505 264.221 127.075C264.315 126.644 261.714 127.207 261.714 127.207Z" fill="white" stroke="#263238" stroke-miterlimit="10"/>
<path d="M269.657 124.243C269.657 124.243 265.199 123.186 263.011 124.965C260.823 126.744 261.006 133.588 261.18 137.772C261.354 141.956 262.838 145.297 264.436 145.824C266.034 146.351 267.681 146.032 268.313 145.403C268.945 144.774 268.283 138.682 268.726 133.731C269.169 128.779 269.657 124.243 269.657 124.243Z" fill="white" stroke="#263238" stroke-miterlimit="10"/>
<path d="M269.657 124.243C269.657 124.243 267.661 129.083 267.08 134.049C266.499 139.015 269.189 145.727 270.234 146.315C271.279 146.903 274.201 146.725 274.881 145.25C275.561 143.775 275.064 138.763 275.142 135.824C275.219 132.885 276.634 126.567 276.424 124.629C276.213 122.69 271.846 122.464 269.657 124.243Z" fill="white" stroke="#263238" stroke-miterlimit="10"/>
<path d="M276.424 124.628C276.424 124.628 279.088 123.358 281.023 124.409C282.958 125.46 283.413 128.352 283.148 129.782C282.883 131.212 281.986 139.714 281.365 141.743C280.745 143.772 279.174 144.783 277.897 144.641C276.621 144.499 275.748 142.913 275.553 141.113C275.357 139.313 275.142 135.823 275.142 135.823L276.424 124.628Z" fill="white" stroke="#263238" stroke-miterlimit="10"/>
<path d="M283.138 127.121C283.138 127.121 286.735 127.991 287.794 128.717C288.853 129.442 289.248 131.781 288.516 135.363C287.784 138.945 286.749 141.019 285.087 141.199C283.426 141.38 282.077 139.285 282.08 138.023C282.084 136.762 283.454 130.029 283.138 127.121Z" fill="white" stroke="#263238" stroke-miterlimit="10"/>
<path d="M235.675 129.827C237.926 133.464 237.13 138.034 233.898 140.034C230.666 142.035 226.22 140.709 223.969 137.072C221.718 133.436 222.514 128.866 225.746 126.865C228.979 124.865 233.424 126.191 235.675 129.827Z" fill="#10B981" stroke="#263238" stroke-miterlimit="10"/>
<path d="M217.954 142.07C219.532 144.619 218.974 147.823 216.708 149.225C214.442 150.628 211.326 149.698 209.748 147.149C208.17 144.6 208.728 141.396 210.994 139.994C213.26 138.591 216.376 139.521 217.954 142.07Z" fill="#263238"/>
<path d="M232.463 148.159C234.041 150.708 233.483 153.911 231.217 155.314C228.951 156.716 225.835 155.787 224.257 153.238C222.679 150.689 223.237 147.486 225.503 146.083C227.769 144.681 230.885 145.61 232.463 148.159Z" fill="#ABABAB" stroke="#263238" stroke-miterlimit="10"/>
</svg>
